<svg xmlns="http://www.w3.org/2000/svg" viewBox="0 0 100 100"><g class="nc-icon-wrapper"><defs/><circle class="a" cx="50.308" cy="49.334" r="40" fill="#e8f4fa" stroke="#daedf7" stroke-miterlimit="10"/><path class="b" d="M20.851 44.826a12.332 12.332 0 0 1 13.784-7.048l-2.583-3.037a3.062 3.062 0 0 0-3.473-.855l-6.379 2.57a3.056 3.056 0 0 0-1.9 3.155z" fill="#f0f0f0" stroke="#45413c" stroke-linecap="round" stroke-linejoin="round"/><path class="c" d="M54.177 29.905A12.33 12.33 0 0 1 69 25.428l-3.218-4.137a3.058 3.058 0 0 0-3.556-.958L55.844 22.9a3.059 3.059 0 0 0-1.911 3.023z" stroke="#45413c" stroke-linecap="round" stroke-linejoin="round" fill="#c0dceb"/><path class="d" d="M61.8 51.192l16.747 7.774a5.411 5.411 0 0 0 4.3.111l.724-.292a5.411 5.411 0 0 0 2.693-7.677L76.1 33.073A12.335 12.335 0 0 1 68.973 48.3z" style="" fill="#e8f4fa"/><path class="e" d="M61.8 51.192l16.747 7.774a5.411 5.411 0 0 0 4.3.111l.724-.292a5.411 5.411 0 0 0 2.693-7.677L76.1 33.073A12.335 12.335 0 0 1 68.973 48.3z" stroke="#45413c" stroke-linecap="round" stroke-linejoin="round" fill="none"/><path class="f" d="M21 55.194L26.21 75.3a5.337 5.337 0 0 0 .219.669 5.412 5.412 0 0 0 7.044 3l.724-.292a5.412 5.412 0 0 0 3.024-3.063L43.9 58.4l-7.177 2.892A12.335 12.335 0 0 1 21 55.194" style="" fill="#fff"/><path class="d" d="M36.86 61.238l-7.529 17.69" style="" fill="#e8f4fa"/><path class="d" d="M29.33 78.928a5.393 5.393 0 0 0 4.143.04l.724-.292a5.412 5.412 0 0 0 3.024-3.063L43.9 58.4l-7.04 2.838" style="" fill="#e8f4fa"/><path class="e" d="M21 55.194L26.21 75.3a5.337 5.337 0 0 0 .219.669 5.412 5.412 0 0 0 7.044 3l.724-.292a5.412 5.412 0 0 0 3.024-3.063L43.9 58.4l-7.177 2.892A12.335 12.335 0 0 1 21 55.194" stroke="#45413c" stroke-linecap="round" stroke-linejoin="round" fill="none"/><path class="g" d="M65.265 82.731a39.8 39.8 0 0 1-15.46 3.1c-1.24 0-2.47-.06-3.69-.17l-4.15-21.92c-.9-4.89-4.49-5.77-6.06-14.31l-1.83-9.95a3.371 3.371 0 1 1 6.63-1.22l-.3-1.66a3.371 3.371 0 0 1 6.63-1.22l-.3-1.66a3.37 3.37 0 1 1 6.63-1.21l8.91 11.21-1.55 14.86z" style="" fill="#ffcebf"/><path class="e" d="M46.115 85.661l-4.15-21.92c-.9-4.89-4.49-5.77-6.06-14.31l-1.83-9.95a3.371 3.371 0 1 1 6.63-1.22l-.3-1.66a3.371 3.371 0 0 1 6.63-1.22l-.3-1.66a3.37 3.37 0 1 1 6.63-1.21l8.91 11.21-1.55 14.86 4.54 24.15" stroke="#45413c" stroke-linecap="round" stroke-linejoin="round" fill="none"/><path class="d" d="M75.8 32.25A12.33 12.33 0 0 0 53.511 31l-17.636 7.107a12.333 12.333 0 1 0 .849 23.186L68.973 48.3A12.334 12.334 0 0 0 75.8 32.25z" style="" fill="#e8f4fa"/><path class="f" d="M35.875 38.107a12.331 12.331 0 1 0-6.215 23.828L40.614 36.2z" style="" fill="#fff"/><path class="e" d="M75.8 32.25A12.33 12.33 0 0 0 53.511 31l-17.636 7.107a12.333 12.333 0 1 0 .849 23.186L68.973 48.3A12.334 12.334 0 0 0 75.8 32.25z" stroke="#45413c" stroke-linecap="round" stroke-linejoin="round" fill="none"/><path class="h" d="M49.181 56.274a5.693 5.693 0 1 1-7.407-3.154 5.692 5.692 0 0 1 7.407 3.154z" style="" fill="#656769"/><path class="e" d="M49.181 56.274a5.693 5.693 0 1 1-7.407-3.154 5.692 5.692 0 0 1 7.407 3.154z" stroke="#45413c" stroke-linecap="round" stroke-linejoin="round" fill="none"/><path class="h" d="M36.629 46.275a1.581 1.581 0 0 0-2.058-.876l-2.2.887-.887-2.2a1.582 1.582 0 0 0-2.057-.876l-1.467.59a1.582 1.582 0 0 0-.876 2.058l.887 2.2-2.2.887A1.58 1.58 0 0 0 24.9 51l.59 1.467a1.581 1.581 0 0 0 2.058.876l2.2-.886.887 2.2a1.581 1.581 0 0 0 2.057.876l1.467-.591a1.582 1.582 0 0 0 .876-2.058l-.886-2.2 2.2-.887a1.58 1.58 0 0 0 .876-2.057z" style="" fill="#656769"/><path class="i" d="M36.629 46.275a1.581 1.581 0 0 0-2.058-.876l-2.2.887.295.733a1.582 1.582 0 0 0 2.058.876l.733-.3a1.6 1.6 0 0 1 1.865.538 1.513 1.513 0 0 0-.1-.4z" style="" fill="#87898c"/><path class="i" d="M25.77 48.945A1.58 1.58 0 0 0 24.9 51l.59 1.467a1.538 1.538 0 0 0 .2.349 1.593 1.593 0 0 1 .977-1.673l.733-.3a1.581 1.581 0 0 0 .876-2.057l-.295-.734z" style="" fill="#87898c"/><path class="i" d="M31.484 44.085a1.582 1.582 0 0 0-2.057-.876l-1.467.591a1.582 1.582 0 0 0-.876 2.058l.887 2.2A1.58 1.58 0 0 1 28.846 46l1.467-.591a1.581 1.581 0 0 1 2.058.876z" style="" fill="#87898c"/><path class="e" d="M36.629 46.275a1.581 1.581 0 0 0-2.058-.876l-2.2.887-.887-2.2a1.582 1.582 0 0 0-2.057-.876l-1.467.59a1.582 1.582 0 0 0-.876 2.058l.887 2.2-2.2.887A1.58 1.58 0 0 0 24.9 51l.59 1.467a1.581 1.581 0 0 0 2.058.876l2.2-.886.887 2.2a1.581 1.581 0 0 0 2.057.876l1.467-.591a1.582 1.582 0 0 0 .876-2.058l-.886-2.2 2.2-.887a1.58 1.58 0 0 0 .876-2.057z" stroke="#45413c" stroke-linecap="round" stroke-linejoin="round" fill="none"/><path class="h" d="M67.075 49.065a5.693 5.693 0 1 1-7.407-3.154 5.693 5.693 0 0 1 7.407 3.154z" style="" fill="#656769"/><path class="e" d="M67.075 49.065a5.693 5.693 0 1 1-7.407-3.154 5.693 5.693 0 0 1 7.407 3.154z" stroke="#45413c" stroke-linecap="round" stroke-linejoin="round" fill="none"/><path class="j" d="M63.912 50.339a2.282 2.282 0 1 1-2.97-1.264 2.282 2.282 0 0 1 2.97 1.264z" style="" fill="#525252"/><path class="h" d="M61.6 50.706a2.282 2.282 0 0 1 2.478.514 2.282 2.282 0 1 0-4.4.825 2.283 2.283 0 0 0 .492.75 2.281 2.281 0 0 1 1.43-2.089z" style="" fill="#656769"/><path class="e" d="M63.912 50.339a2.282 2.282 0 1 1-2.97-1.264 2.282 2.282 0 0 1 2.97 1.264z" stroke="#45413c" stroke-linecap="round" stroke-linejoin="round" fill="none"/><circle class="k" cx="50.529" cy="49.039" r="2.098" stroke="#45413c" stroke-linecap="round" stroke-linejoin="round" fill="#656769"/><path class="k" d="M54.651 41.635L42.425 46.56a1 1 0 0 1-1.3-.554l-3.471-8.615 14.08-5.673 3.466 8.616a1 1 0 0 1-.549 1.301z" stroke="#45413c" stroke-linecap="round" stroke-linejoin="round" fill="#656769"/><path class="e" d="M40.709 38.26l.304 1.658" stroke="#45413c" stroke-linecap="round" stroke-linejoin="round" fill="none"/><path class="e" d="M47.036 35.383l.304 1.658" stroke="#45413c" stroke-linecap="round" stroke-linejoin="round" fill="none"/><path class="l" d="M50.809 37.261a3.372 3.372 0 0 1-3.926-2.707l-.914-4.973a3.372 3.372 0 1 1 6.631-1.219l.914 4.973a3.372 3.372 0 0 1-2.705 3.926z" stroke="#45413c" stroke-linecap="round" stroke-linejoin="round" fill="#ffcebf"/><path class="l" d="M44.634 40.967a3.372 3.372 0 0 1-3.925-2.707l-.909-4.974a3.371 3.371 0 1 1 6.631-1.219l.914 4.974a3.372 3.372 0 0 1-2.711 3.926z" stroke="#45413c" stroke-linecap="round" stroke-linejoin="round" fill="#ffcebf"/><path class="l" d="M56.649 31.47a3.371 3.371 0 0 1-3.925-2.707l-.6-3.274a3.372 3.372 0 0 1 6.632-1.219l.6 3.274a3.373 3.373 0 0 1-2.707 3.926z" stroke="#45413c" stroke-linecap="round" stroke-linejoin="round" fill="#ffcebf"/><path class="l" d="M38.307 43.843a3.371 3.371 0 0 1-3.925-2.706l-.457-2.487a3.371 3.371 0 1 1 6.631-1.219l.457 2.487a3.371 3.371 0 0 1-2.706 3.925z" stroke="#45413c" stroke-linecap="round" stroke-linejoin="round" fill="#ffcebf"/><path class="g" d="M62.1 66.1c-1.246-6.78 6.084-7.313 7.512-10.542.86-1.943 3.688-10.318 3.688-10.318a3.371 3.371 0 1 0-6.349-2.269l-2.258 6.316-1.352.249a11.8 11.8 0 0 0-9.667 11.356" style="" fill="#ffcebf"/><circle class="j" cx="43.906" cy="58.49" r="2.372" style="" fill="#525252"/><path class="h" d="M42.267 60.205a2.372 2.372 0 1 1 4.01-1.612A2.366 2.366 0 0 0 42.27 60.2" style="" fill="#656769"/><circle class="e" cx="43.906" cy="58.49" r="2.372" stroke="#45413c" stroke-linecap="round" stroke-linejoin="round" fill="none"/><circle class="m" cx="62.725" cy="30.647" r="2.372" style="" fill="#ff6242"/><path class="n" d="M61.085 32.362A2.372 2.372 0 1 1 65.1 30.75a2.365 2.365 0 0 0-4.007 1.608" style="" fill="#ff866e"/><circle class="e" cx="62.725" cy="30.647" r="2.372" stroke="#45413c" stroke-linecap="round" stroke-linejoin="round" fill="none"/><circle class="o" cx="59.658" cy="37.864" r="2.372" style="" fill="#6dd627"/><path class="p" d="M58.019 39.578a2.372 2.372 0 1 1 4.009-1.611 2.365 2.365 0 0 0-4.006 1.608" style="" fill="#9ceb60"/><circle class="e" cx="59.658" cy="37.864" r="2.372" stroke="#45413c" stroke-linecap="round" stroke-linejoin="round" fill="none"/><g><circle class="q" cx="69.927" cy="33.712" r="2.372" style="" fill="#00b8f0"/><path class="r" d="M68.287 35.427a2.372 2.372 0 1 1 4.01-1.611 2.365 2.365 0 0 0-4.007 1.608" style="" fill="#4acfff"/><circle class="e" cx="69.927" cy="33.712" r="2.372" stroke="#45413c" stroke-linecap="round" stroke-linejoin="round" fill="none"/></g><g><circle class="s" cx="66.863" cy="40.935" r="2.372" style="" fill="#ffe500"/><path class="t" d="M65.223 42.649a2.372 2.372 0 1 1 4.01-1.611 2.365 2.365 0 0 0-4.007 1.608" style="" fill="#fff48c"/><circle class="e" cx="66.863" cy="40.935" r="2.372" stroke="#45413c" stroke-linecap="round" stroke-linejoin="round" fill="none"/></g><path class="u" d="M65.713 51.227a11.793 11.793 0 0 0-9.446 9.359 1.2 1.2 0 0 1-1.8.79l-.79-.488a11.8 11.8 0 0 1 9.667-11.356l1.352-.249 2.258-6.316a3.371 3.371 0 0 1 6.133-.483 3.366 3.366 0 0 0-3.761 2.177l-2.258 6.317z" style="" fill="#ffdcd1"/><path class="e" d="M62.1 66.1c-1.246-6.78 6.084-7.313 7.512-10.542.86-1.943 3.688-10.318 3.688-10.318a3.371 3.371 0 1 0-6.349-2.269l-2.258 6.316-1.352.249a11.8 11.8 0 0 0-9.667 11.356" stroke="#45413c" stroke-linecap="round" stroke-linejoin="round" fill="none"/></g></svg>